<mxfile host="app.diagrams.net" modified="2021-10-06T03:57:10.973Z" agent="5.0 (Windows NT 10.0; WOW64) AppleWebKit/537.36 (KHTML, like Gecko) Chrome/86.0.4240.198 Safari/537.36" etag="9VSiiHU6qbaonGP5O3Oy" version="15.4.3" type="github">
  <diagram id="DeWpxw5ASDEQVjcBAqnX" name="Page-1">
    <mxGraphModel dx="1422" dy="762" grid="1" gridSize="10" guides="1" tooltips="1" connect="1" arrows="1" fold="1" page="1" pageScale="1" pageWidth="827" pageHeight="1169" math="0" shadow="0">
      <root>
        <mxCell id="0" />
        <mxCell id="1" parent="0" />
        <mxCell id="us1dhpzeZ8741b2ANPVT-5" value="" style="whiteSpace=wrap;html=1;fillColor=#1ba1e2;strokeColor=none;fontColor=#ffffff;" vertex="1" parent="1">
          <mxGeometry x="200" width="620" height="580" as="geometry" />
        </mxCell>
        <mxCell id="us1dhpzeZ8741b2ANPVT-31" value="" style="rounded=0;whiteSpace=wrap;html=1;fontColor=#000000;fillColor=#f0a30a;strokeColor=#BD7000;" vertex="1" parent="1">
          <mxGeometry x="510" y="220" width="227" height="330" as="geometry" />
        </mxCell>
        <mxCell id="us1dhpzeZ8741b2ANPVT-4" value="" style="whiteSpace=wrap;html=1;fillColor=#60a917;strokeColor=none;fontColor=#ffffff;" vertex="1" parent="1">
          <mxGeometry width="200" height="580" as="geometry" />
        </mxCell>
        <mxCell id="us1dhpzeZ8741b2ANPVT-12" style="edgeStyle=orthogonalEdgeStyle;orthogonalLoop=1;jettySize=auto;html=1;exitX=0.5;exitY=1;exitDx=0;exitDy=0;exitPerimeter=0;" edge="1" parent="1" source="us1dhpzeZ8741b2ANPVT-1" target="us1dhpzeZ8741b2ANPVT-10">
          <mxGeometry relative="1" as="geometry" />
        </mxCell>
        <mxCell id="us1dhpzeZ8741b2ANPVT-1" value="AVT MIS (Jason)&lt;br&gt;&lt;br&gt;Daily Download&lt;br&gt;@4 AM, 2PM" style="shape=cylinder3;whiteSpace=wrap;html=1;boundedLbl=1;backgroundOutline=1;size=15;" vertex="1" parent="1">
          <mxGeometry x="250" y="140" width="130" height="140" as="geometry" />
        </mxCell>
        <mxCell id="us1dhpzeZ8741b2ANPVT-9" style="edgeStyle=orthogonalEdgeStyle;orthogonalLoop=1;jettySize=auto;html=1;" edge="1" parent="1" source="us1dhpzeZ8741b2ANPVT-8" target="us1dhpzeZ8741b2ANPVT-1">
          <mxGeometry relative="1" as="geometry" />
        </mxCell>
        <mxCell id="us1dhpzeZ8741b2ANPVT-8" value="AVI MIS&amp;nbsp;&lt;br&gt;" style="shape=cylinder3;whiteSpace=wrap;html=1;boundedLbl=1;backgroundOutline=1;size=15;" vertex="1" parent="1">
          <mxGeometry x="40" y="140" width="110" height="140" as="geometry" />
        </mxCell>
        <mxCell id="us1dhpzeZ8741b2ANPVT-13" style="edgeStyle=orthogonalEdgeStyle;orthogonalLoop=1;jettySize=auto;html=1;exitX=1;exitY=0.5;exitDx=0;exitDy=0;exitPerimeter=0;" edge="1" parent="1" source="us1dhpzeZ8741b2ANPVT-10" target="us1dhpzeZ8741b2ANPVT-11">
          <mxGeometry relative="1" as="geometry" />
        </mxCell>
        <mxCell id="us1dhpzeZ8741b2ANPVT-16" style="edgeStyle=orthogonalEdgeStyle;orthogonalLoop=1;jettySize=auto;html=1;exitX=1;exitY=1;exitDx=0;exitDy=-15;exitPerimeter=0;entryX=0;entryY=0.5;entryDx=0;entryDy=0;entryPerimeter=0;startArrow=none;" edge="1" parent="1" source="us1dhpzeZ8741b2ANPVT-26" target="us1dhpzeZ8741b2ANPVT-14">
          <mxGeometry relative="1" as="geometry" />
        </mxCell>
        <mxCell id="us1dhpzeZ8741b2ANPVT-10" value="中繼&lt;br&gt;DB&lt;br&gt;@ 6AM, 3PM" style="shape=cylinder3;whiteSpace=wrap;html=1;boundedLbl=1;backgroundOutline=1;size=15;" vertex="1" parent="1">
          <mxGeometry x="263.75" y="345" width="102.5" height="110" as="geometry" />
        </mxCell>
        <mxCell id="us1dhpzeZ8741b2ANPVT-11" value="AVT (Anita)&lt;br&gt;AX310 SN&lt;br&gt;&lt;br&gt;@ 7AM, 4PM" style="shape=cylinder3;whiteSpace=wrap;html=1;boundedLbl=1;backgroundOutline=1;size=15;" vertex="1" parent="1">
          <mxGeometry x="540" y="260" width="160" height="120" as="geometry" />
        </mxCell>
        <mxCell id="us1dhpzeZ8741b2ANPVT-14" value="Dump SN&lt;br&gt;@ 10AM, 3PM" style="shape=note;whiteSpace=wrap;html=1;backgroundOutline=1;darkOpacity=0.05;" vertex="1" parent="1">
          <mxGeometry x="580" y="430" width="100" height="100" as="geometry" />
        </mxCell>
        <mxCell id="us1dhpzeZ8741b2ANPVT-17" value="AVerMedia" style="text;strokeColor=none;fillColor=none;html=1;fontSize=24;fontStyle=1;verticalAlign=middle;align=center;" vertex="1" parent="1">
          <mxGeometry x="410" y="20" width="100" height="40" as="geometry" />
        </mxCell>
        <mxCell id="us1dhpzeZ8741b2ANPVT-18" value="AVer" style="text;strokeColor=none;fillColor=none;html=1;fontSize=24;fontStyle=1;verticalAlign=middle;align=center;" vertex="1" parent="1">
          <mxGeometry x="40" y="20" width="100" height="40" as="geometry" />
        </mxCell>
        <mxCell id="us1dhpzeZ8741b2ANPVT-23" value="&lt;span style=&quot;color: rgb(0 , 0 , 0)&quot;&gt;4 AM, 2PM&lt;/span&gt;" style="text;html=1;align=center;verticalAlign=middle;whiteSpace=wrap;fillColor=#e51400;strokeColor=#B20000;fontColor=#ffffff;" vertex="1" parent="1">
          <mxGeometry x="160" y="193" width="70" height="30" as="geometry" />
        </mxCell>
        <mxCell id="us1dhpzeZ8741b2ANPVT-24" value="&lt;span style=&quot;color: rgb(0 , 0 , 0)&quot;&gt;6AM, 3PM&lt;/span&gt;" style="text;html=1;align=center;verticalAlign=middle;whiteSpace=wrap;fillColor=#e51400;strokeColor=#B20000;fontColor=#ffffff;" vertex="1" parent="1">
          <mxGeometry x="280" y="290" width="70" height="30" as="geometry" />
        </mxCell>
        <mxCell id="us1dhpzeZ8741b2ANPVT-25" value="&lt;span style=&quot;color: rgb(0 , 0 , 0)&quot;&gt;7AM, 4PM&lt;/span&gt;" style="text;html=1;align=center;verticalAlign=middle;whiteSpace=wrap;fillColor=#e51400;strokeColor=#B20000;fontColor=#ffffff;" vertex="1" parent="1">
          <mxGeometry x="430" y="345" width="70" height="30" as="geometry" />
        </mxCell>
        <mxCell id="us1dhpzeZ8741b2ANPVT-26" value="&lt;span style=&quot;color: rgb(0 , 0 , 0)&quot;&gt;10AM, 3PM&lt;/span&gt;" style="text;html=1;align=center;verticalAlign=middle;whiteSpace=wrap;fillColor=#e51400;strokeColor=#B20000;fontColor=#ffffff;" vertex="1" parent="1">
          <mxGeometry x="440" y="450" width="70" height="30" as="geometry" />
        </mxCell>
        <mxCell id="us1dhpzeZ8741b2ANPVT-27" value="" style="edgeStyle=orthogonalEdgeStyle;orthogonalLoop=1;jettySize=auto;html=1;exitX=1;exitY=1;exitDx=0;exitDy=-15;exitPerimeter=0;entryX=0;entryY=0.5;entryDx=0;entryDy=0;entryPerimeter=0;endArrow=none;" edge="1" parent="1" source="us1dhpzeZ8741b2ANPVT-10" target="us1dhpzeZ8741b2ANPVT-26">
          <mxGeometry relative="1" as="geometry">
            <mxPoint x="366.25" y="440" as="sourcePoint" />
            <mxPoint x="580" y="480" as="targetPoint" />
          </mxGeometry>
        </mxCell>
        <mxCell id="us1dhpzeZ8741b2ANPVT-28" value="1" style="text;strokeColor=none;fillColor=none;html=1;fontSize=24;fontStyle=1;verticalAlign=middle;align=center;" vertex="1" parent="1">
          <mxGeometry x="150" y="153" width="100" height="40" as="geometry" />
        </mxCell>
        <mxCell id="us1dhpzeZ8741b2ANPVT-29" value="2" style="text;strokeColor=none;fillColor=none;html=1;fontSize=24;fontStyle=1;verticalAlign=middle;align=center;" vertex="1" parent="1">
          <mxGeometry x="210" y="285" width="100" height="40" as="geometry" />
        </mxCell>
        <mxCell id="us1dhpzeZ8741b2ANPVT-30" value="3" style="text;strokeColor=none;fillColor=none;html=1;fontSize=24;fontStyle=1;verticalAlign=middle;align=center;" vertex="1" parent="1">
          <mxGeometry x="473.5" y="245" width="100" height="40" as="geometry" />
        </mxCell>
        <mxCell id="us1dhpzeZ8741b2ANPVT-32" value="Nexus Cloud" style="text;strokeColor=none;fillColor=none;html=1;fontSize=24;fontStyle=1;verticalAlign=middle;align=center;fontColor=#000000;" vertex="1" parent="1">
          <mxGeometry x="573.5" y="220" width="100" height="40" as="geometry" />
        </mxCell>
      </root>
    </mxGraphModel>
  </diagram>
</mxfile>
